<svg xmlns="http://www.w3.org/2000/svg" width="560" height="172" viewBox="0 0 560 172"><rect width="560" height="172" rx="18" fill="#101e2c"/><rect x="1" y="1" width="558" height="170" rx="17" fill="none" stroke="#294657"/><path d="M438 0v172M470 0v172M502 0v172M0 128h560" stroke="#1a3040"/><rect x="24" y="26" width="52" height="52" rx="14" fill="#183d44"/><g transform="translate(36 38) scale(1.15)" fill="none" stroke="#69e5ce" stroke-width="1.6" stroke-linecap="round" stroke-linejoin="round"><path d="M3 10v11h18V10M2 10l2-7h16l2 7M2 10c2 3 4 3 6 0 2 3 4 3 6 0 2 3 4 3 8 0M9 21v-7h6v7"/></g><text x="94" y="44" font-family="Arial,sans-serif" font-size="10" letter-spacing="2" fill="#69e5ce">PHP / MYSQL / JAVASCRIPT</text><text x="94" y="70" font-family="Arial,sans-serif" font-weight="700" font-size="22" fill="#edf7fb">Bakery &amp; Sweets Store</text><text x="26" y="108" font-family="Arial,sans-serif" font-size="14" fill="#a6bac8">Product pages and session-based cart</text><text x="26" y="151" font-family="Arial,sans-serif" font-size="11" fill="#90a9b8">PROJECT / SOURCE CODE</text><path d="M504 147h22m-8-8 8 8-8 8" fill="none" stroke="#69e5ce" stroke-width="1.7"/></svg>